<svg width="53" height="44" viewBox="0 0 53 44" fill="none" xmlns="http://www.w3.org/2000/svg">
<path d="M52.5 42C52.5 42.5304 52.2893 43.0391 51.9142 43.4142C51.5392 43.7893 51.0304 44 50.5 44H2.5C1.96957 44 1.46086 43.7893 1.08579 43.4142C0.710714 43.0391 0.5 42.5304 0.5 42V2C0.5 1.46957 0.710714 0.96086 1.08579 0.585787C1.46086 0.210714 1.96957 0 2.5 0C3.03043 0 3.53914 0.210714 3.91421 0.585787C4.28929 0.96086 4.5 1.46957 4.5 2V25.5925L17.1825 14.5C17.5276 14.1979 17.9661 14.0236 18.4244 14.0063C18.8827 13.989 19.3331 14.1298 19.7 14.405L34.4025 25.4325L49.1825 12.5C49.3763 12.3082 49.6073 12.158 49.8612 12.0587C50.1152 11.9594 50.3868 11.9131 50.6593 11.9226C50.9318 11.9321 51.1995 11.9972 51.4459 12.114C51.6923 12.2308 51.9122 12.3967 52.0922 12.6015C52.2721 12.8064 52.4083 13.0459 52.4923 13.3053C52.5763 13.5648 52.6063 13.8386 52.5806 14.1101C52.5549 14.3815 52.4739 14.6449 52.3427 14.8839C52.2115 15.1229 52.0327 15.3326 51.8175 15.5L35.8175 29.5C35.4724 29.8021 35.0339 29.9764 34.5756 29.9937C34.1173 30.011 33.6669 29.8702 33.3 29.595L18.5975 18.5725L4.5 30.9075V40H50.5C51.0304 40 51.5392 40.2107 51.9142 40.5858C52.2893 40.9609 52.5 41.4696 52.5 42Z" fill="#4F46E5"/>
</svg>
