<svg width="53" height="52" viewBox="0 0 53 52" fill="none" xmlns="http://www.w3.org/2000/svg">
<path d="M26.5 0C21.3577 0 16.3309 1.52487 12.0552 4.38179C7.77951 7.23871 4.44702 11.2994 2.47914 16.0502C0.511265 20.8011 -0.00362134 26.0288 0.999594 31.0723C2.00281 36.1159 4.47907 40.7486 8.11524 44.3848C11.7514 48.0209 16.3842 50.4972 21.4277 51.5004C26.4712 52.5036 31.6989 51.9887 36.4498 50.0209C41.2007 48.053 45.2613 44.7205 48.1182 40.4448C50.9751 36.1691 52.5 31.1423 52.5 26C52.4927 19.1066 49.7511 12.4976 44.8767 7.62326C40.0024 2.74889 33.3934 0.00727955 26.5 0ZM26.5 48C22.1488 48 17.8953 46.7097 14.2775 44.2923C10.6596 41.8749 7.83979 38.439 6.17466 34.419C4.50953 30.3991 4.07386 25.9756 4.92274 21.708C5.77161 17.4404 7.86691 13.5204 10.9437 10.4437C14.0204 7.3669 17.9404 5.2716 22.208 4.42272C26.4756 3.57385 30.8991 4.00952 34.919 5.67465C38.939 7.33978 42.375 10.1596 44.7923 13.7775C47.2097 17.3953 48.5 21.6488 48.5 26C48.4934 31.8327 46.1734 37.4247 42.0491 41.549C37.9247 45.6734 32.3327 47.9934 26.5 48ZM14.5 21C14.5 20.4067 14.676 19.8266 15.0056 19.3333C15.3352 18.8399 15.8038 18.4554 16.352 18.2284C16.9001 18.0013 17.5033 17.9419 18.0853 18.0576C18.6672 18.1734 19.2018 18.4591 19.6213 18.8787C20.0409 19.2982 20.3266 19.8328 20.4424 20.4147C20.5581 20.9967 20.4987 21.5999 20.2717 22.1481C20.0446 22.6962 19.6601 23.1648 19.1667 23.4944C18.6734 23.8241 18.0934 24 17.5 24C16.7044 24 15.9413 23.6839 15.3787 23.1213C14.8161 22.5587 14.5 21.7956 14.5 21ZM40.5 21C40.5 21.5304 40.2893 22.0391 39.9142 22.4142C39.5392 22.7893 39.0304 23 38.5 23H32.5C31.9696 23 31.4609 22.7893 31.0858 22.4142C30.7107 22.0391 30.5 21.5304 30.5 21C30.5 20.4696 30.7107 19.9609 31.0858 19.5858C31.4609 19.2107 31.9696 19 32.5 19H38.5C39.0304 19 39.5392 19.2107 39.9142 19.5858C40.2893 19.9609 40.5 20.4696 40.5 21ZM38.23 33C35.6575 37.4475 31.3825 40 26.5 40C21.6175 40 17.3425 37.45 14.7675 33C14.6362 32.7725 14.551 32.5213 14.5167 32.2609C14.4824 32.0004 14.4998 31.7358 14.5678 31.482C14.6359 31.2283 14.7532 30.9905 14.9131 30.7821C15.0731 30.5737 15.2725 30.3988 15.5 30.2675C15.7275 30.1362 15.9787 30.051 16.2391 30.0167C16.4996 29.9824 16.7642 29.9998 17.018 30.0678C17.2717 30.1358 17.5096 30.2532 17.7179 30.4131C17.9263 30.5731 18.1012 30.7725 18.2325 31C20.0975 34.2275 23.0325 36 26.5 36C29.9675 36 32.9025 34.225 34.77 31C34.895 30.761 35.0671 30.5497 35.2759 30.379C35.4847 30.2082 35.7259 30.0814 35.9849 30.0062C36.244 29.9311 36.5156 29.9091 36.7833 29.9416C37.0511 29.9742 37.3095 30.0605 37.5431 30.1955C37.7766 30.3305 37.9804 30.5113 38.1422 30.7271C38.3041 30.9429 38.4206 31.1892 38.4848 31.4512C38.5489 31.7132 38.5594 31.9855 38.5157 32.2516C38.4719 32.5178 38.3747 32.7724 38.23 33Z" fill="#4F46E5"/>
</svg>
