<svg width="19" height="21" viewBox="0 0 19 21" fill="none" xmlns="http://www.w3.org/2000/svg">
<path d="M18.3256 8.92349L10.8256 1.42349C10.474 1.07198 9.99719 0.874512 9.50001 0.874512C9.00283 0.874512 8.526 1.07198 8.17438 1.42349L0.674385 8.92349C0.499566 9.09723 0.360985 9.30396 0.266679 9.53168C0.172372 9.7594 0.124218 10.0036 0.12501 10.25V19.25C0.12501 19.5484 0.243536 19.8346 0.454515 20.0455C0.665493 20.2565 0.951641 20.375 1.25001 20.375H17.75C18.0484 20.375 18.3345 20.2565 18.5455 20.0455C18.7565 19.8346 18.875 19.5484 18.875 19.25V10.25C18.8758 10.0036 18.8276 9.7594 18.7333 9.53168C18.639 9.30396 18.5005 9.09723 18.3256 8.92349ZM16.625 18.125H2.37501V10.4047L9.50001 3.27974L16.625 10.4047V18.125Z" fill="#4F46E5"/>
</svg>
