<svg width="53" height="50" viewBox="0 0 53 50" fill="none" xmlns="http://www.w3.org/2000/svg">
<path d="M50.5 19.9996H48.4075C47.905 14.5368 45.3796 9.4588 41.3267 5.76164C37.2738 2.06447 31.9859 0.0148926 26.5 0.0148926C21.0141 0.0148926 15.7262 2.06447 11.6733 5.76164C7.6204 9.4588 5.09503 14.5368 4.5925 19.9996H2.5C1.96957 19.9996 1.46086 20.2103 1.08579 20.5854C0.710714 20.9605 0.5 21.4692 0.5 21.9996C0.508788 26.7559 1.81773 31.4193 4.28528 35.4854C6.75282 39.5516 10.2851 42.8658 14.5 45.0696V45.9996C14.5 47.0605 14.9214 48.0779 15.6716 48.828C16.4217 49.5782 17.4391 49.9996 18.5 49.9996H34.5C35.5609 49.9996 36.5783 49.5782 37.3284 48.828C38.0786 48.0779 38.5 47.0605 38.5 45.9996V45.0696C42.7149 42.8658 46.2472 39.5516 48.7147 35.4854C51.1823 31.4193 52.4912 26.7559 52.5 21.9996C52.5 21.4692 52.2893 20.9605 51.9142 20.5854C51.5391 20.2103 51.0304 19.9996 50.5 19.9996ZM44.385 19.9996H31.53C33.9548 16.3618 37.6232 13.7334 41.8475 12.6071C43.2287 14.8537 44.0953 17.3783 44.385 19.9996ZM37.87 8.05709C38.3283 8.43209 38.7675 8.82792 39.1875 9.24459C33.8634 11.1175 29.4638 14.9666 26.9 19.9946H19.525C20.775 16.4907 23.0763 13.4581 26.1146 11.3112C29.1528 9.1643 32.7798 8.00777 36.5 7.99959C36.9575 7.99959 37.415 8.02209 37.87 8.05709ZM26.5 3.99959C28.1049 4.00065 29.7025 4.21674 31.25 4.64209C27.4811 5.57702 24.0252 7.48894 21.2307 10.1851C18.4362 12.8813 16.4018 16.2666 15.3325 19.9996H8.615C9.11111 15.6017 11.2083 11.5403 14.5068 8.58945C17.8052 5.63863 22.0743 4.00485 26.5 3.99959ZM35.665 41.9996C35.3161 42.1599 35.0208 42.4172 34.8142 42.7408C34.6076 43.0644 34.4985 43.4407 34.5 43.8246V45.9996H18.5V43.8246C18.5015 43.4407 18.3924 43.0644 18.1858 42.7408C17.9792 42.4172 17.6839 42.1599 17.335 41.9996C13.8178 40.3811 10.7882 37.8659 8.55027 34.7065C6.31234 31.5471 4.94483 27.8546 4.585 23.9996H48.4075C48.0484 27.8538 46.682 31.5457 44.4454 34.7051C42.2089 37.8645 39.1808 40.3801 35.665 41.9996Z" fill="#4F46E5"/>
</svg>
