<svg width="45" height="60" viewBox="0 0 45 60" fill="none" xmlns="http://www.w3.org/2000/svg">
<path d="M44.4476 27.5426C44.3719 27.2221 44.2181 26.9252 44.0001 26.6783C43.782 26.4315 43.5063 26.2423 43.1976 26.1276L28.7951 20.7251L32.4601 2.39261C32.5431 1.96667 32.4853 1.52528 32.2954 1.13507C32.1055 0.744853 31.7939 0.42698 31.4075 0.229417C31.0211 0.031854 30.581 -0.0346797 30.1535 0.039856C29.726 0.114392 29.3343 0.325952 29.0376 0.642613L1.03758 30.6426C0.81017 30.8822 0.645657 31.1745 0.558741 31.4932C0.471826 31.8119 0.465214 32.1472 0.539499 32.4691C0.613783 32.791 0.766649 33.0895 0.984439 33.3379C1.20223 33.5863 1.47816 33.7769 1.78758 33.8926L16.1951 39.2951L12.5401 57.6076C12.4571 58.0336 12.5149 58.4749 12.7048 58.8652C12.8946 59.2554 13.2063 59.5732 13.5926 59.7708C13.979 59.9684 14.4192 60.0349 14.8467 59.9604C15.2742 59.8858 15.6659 59.6743 15.9626 59.3576L43.9626 29.3576C44.1859 29.1179 44.3469 28.8271 44.4315 28.5106C44.516 28.1941 44.5216 27.8617 44.4476 27.5426ZM17.8426 51.5001L20.4601 38.4051C20.5538 37.9407 20.4795 37.4581 20.2506 37.0433C20.0217 36.6285 19.653 36.3084 19.2101 36.1401L6.00008 31.1776L27.1551 8.51261L24.5401 21.6076C24.4464 22.072 24.5206 22.5546 24.7496 22.9694C24.9785 23.3842 25.3472 23.7043 25.7901 23.8726L38.9901 28.8226L17.8426 51.5001Z" fill="#4F46E5"/>
</svg>
