<svg width="55" height="57" viewBox="0 0 55 57" fill="none" xmlns="http://www.w3.org/2000/svg">
<path d="M53.375 53.2025C47.7351 50.4525 44.5 44.5575 44.5 37.0025V32.6825C44.5022 31.8811 44.2626 31.0976 43.8126 30.4344C43.3626 29.7713 42.7231 29.2592 41.9776 28.965L35.75 26.5C35.2601 26.3041 34.8675 25.9224 34.6577 25.4382C34.4479 24.954 34.438 24.4065 34.6301 23.915L39.96 10.665C40.3218 9.79539 40.5043 8.86168 40.4966 7.91984C40.489 6.97798 40.2913 6.04737 39.9155 5.18371C39.5397 4.32005 38.9935 3.54111 38.3095 2.89355C37.6256 2.24598 36.818 1.74311 35.9351 1.41504C34.2154 0.784953 32.3178 0.850326 30.6456 1.59727C28.9734 2.34421 27.6584 3.71383 26.9801 5.41504C26.9791 5.42502 26.9791 5.43507 26.9801 5.44504L21.7251 18.75C21.5296 19.2423 21.1469 19.6369 20.6609 19.8473C20.1749 20.0578 19.6252 20.0668 19.1326 19.8725L12.7776 17.285C12.0448 16.9881 11.2402 16.9166 10.4666 17.0796C9.69302 17.2426 8.98566 17.6327 8.43505 18.2C3.17005 23.6125 0.500051 29.9375 0.500051 37C0.486215 44.2273 3.28123 51.1772 8.29505 56.3825C8.4829 56.5789 8.7088 56.735 8.95896 56.8411C9.20912 56.9473 9.4783 57.0014 9.75005 57H52.5C52.9521 56.9996 53.3907 56.8461 53.7442 56.5644C54.0978 56.2827 54.3456 55.8896 54.4471 55.4491C54.5486 55.0086 54.4978 54.5467 54.3032 54.1387C54.1085 53.7307 53.7813 53.4008 53.375 53.2025ZM11.2851 21L17.6376 23.575C18.3708 23.8684 19.1548 24.0141 19.9445 24.0038C20.7342 23.9935 21.5141 23.8274 22.2395 23.515C22.9649 23.2026 23.6214 22.75 24.1715 22.1833C24.7216 21.6166 25.1544 20.9469 25.4451 20.2125L30.6951 6.96254C31.3351 5.43504 33.0625 4.64504 34.5526 5.21254C34.9324 5.35348 35.2798 5.56991 35.5737 5.84878C35.8677 6.12764 36.1021 6.46316 36.2628 6.83508C36.4236 7.20701 36.5073 7.60765 36.509 8.01282C36.5106 8.41799 36.4302 8.8193 36.2725 9.19254L30.9226 22.44C30.3368 23.9177 30.3614 25.5675 30.9909 27.0271C31.6204 28.4867 32.8033 29.6368 34.28 30.225L40.5 32.6825V37C40.5 37.0825 40.5 37.165 40.5 37.25L8.44255 24.4275C9.29482 23.2093 10.2455 22.063 11.2851 21ZM23.2851 53C20.3073 50.1437 18.1979 46.5037 17.2001 42.5C17.061 41.9937 16.7283 41.5623 16.2739 41.2991C15.8195 41.0358 15.2798 40.9619 14.7714 41.0932C14.2629 41.2245 13.8265 41.5505 13.5564 42.0008C13.2862 42.4511 13.204 42.9896 13.3276 43.5C14.1999 46.9443 15.7613 50.1761 17.9176 53H10.6101C6.66551 48.6054 4.48879 42.9053 4.50005 37C4.47559 33.8712 5.13514 30.7748 6.43255 27.9275L40.8825 41.7075C41.6325 46.2075 43.5225 50.0775 46.355 52.9976L23.2851 53Z" fill="#4F46E5"/>
</svg>
