<svg width="57" height="52" viewBox="0 0 57 52" fill="none" xmlns="http://www.w3.org/2000/svg">
<path d="M28.4999 13.9999C26.1265 13.9999 23.8064 14.7037 21.833 16.0223C19.8596 17.3409 18.3216 19.215 17.4133 21.4077C16.5051 23.6004 16.2674 26.0132 16.7304 28.341C17.1935 30.6688 18.3364 32.807 20.0146 34.4852C21.6928 36.1634 23.831 37.3063 26.1588 37.7693C28.4866 38.2324 30.8994 37.9947 33.0921 37.0865C35.2848 36.1782 37.1589 34.6401 38.4775 32.6668C39.7961 30.6934 40.4999 28.3733 40.4999 25.9999C40.4966 22.8183 39.2312 19.768 36.9815 17.5183C34.7318 15.2686 31.6814 14.0032 28.4999 13.9999ZM28.4999 33.9999C26.9176 33.9999 25.3709 33.5307 24.0553 32.6517C22.7397 31.7726 21.7143 30.5232 21.1088 29.0614C20.5033 27.5996 20.3449 25.991 20.6536 24.4392C20.9623 22.8873 21.7242 21.4619 22.843 20.3431C23.9618 19.2242 25.3873 18.4623 26.9391 18.1536C28.491 17.8449 30.0995 18.0034 31.5613 18.6089C33.0231 19.2144 34.2726 20.2398 35.1516 21.5554C36.0307 22.8709 36.4999 24.4177 36.4999 25.9999C36.4999 28.1216 35.657 30.1565 34.1567 31.6568C32.6564 33.1571 30.6216 33.9999 28.4999 33.9999ZM55.9849 20.8024C55.9292 20.5208 55.8135 20.2544 55.6457 20.0215C55.4779 19.7885 55.2619 19.5944 55.0124 19.4524L47.5549 15.2024L47.5249 6.79741C47.524 6.50795 47.4602 6.22213 47.3381 5.9597C47.2159 5.69727 47.0383 5.46448 46.8174 5.27741C44.1122 2.98916 40.997 1.23558 37.6374 0.109912C37.3728 0.0203611 37.0924 -0.0127791 36.8142 0.0126253C36.5361 0.0380297 36.2663 0.121416 36.0224 0.257412L28.4999 4.46241L20.9699 0.249911C20.7257 0.11315 20.4556 0.0291341 20.177 0.003296C19.8984 -0.022542 19.6175 0.0103723 19.3524 0.0999113C15.9952 1.23381 12.8836 2.99407 10.1824 5.28741C9.96179 5.4742 9.78431 5.70659 9.66218 5.96856C9.54004 6.23053 9.47613 6.51587 9.47487 6.80491L9.43737 15.2174L1.97987 19.4674C1.73037 19.6095 1.51438 19.8035 1.34657 20.0365C1.17876 20.2694 1.06307 20.5358 1.00737 20.8174C0.324856 24.2471 0.324856 27.7777 1.00737 31.2074C1.06307 31.489 1.17876 31.7554 1.34657 31.9883C1.51438 32.2213 1.73037 32.4154 1.97987 32.5574L9.43737 36.8074L9.46737 45.2124C9.46827 45.5019 9.532 45.7877 9.65415 46.0501C9.7763 46.3126 9.95397 46.5453 10.1749 46.7324C12.88 49.0207 15.9953 50.7743 19.3549 51.8999C19.6194 51.9895 19.8998 52.0226 20.178 51.9972C20.4561 51.9718 20.7259 51.8884 20.9699 51.7524L28.4999 47.5374L36.0299 51.7499C36.3279 51.9159 36.6637 52.0021 37.0049 51.9999C37.2233 51.9998 37.4403 51.9644 37.6474 51.8949C41.0041 50.7625 44.1157 49.004 46.8174 46.7124C47.0379 46.5256 47.2154 46.2932 47.3376 46.0313C47.4597 45.7693 47.5236 45.484 47.5249 45.1949L47.5624 36.7824L55.0199 32.5324C55.2694 32.3904 55.4854 32.1963 55.6532 31.9633C55.821 31.7304 55.9367 31.464 55.9924 31.1824C56.6711 27.7554 56.6685 24.2284 55.9849 20.8024ZM52.2349 29.5299L45.0924 33.5924C44.7794 33.7704 44.5203 34.0295 44.3424 34.3424C44.1974 34.5924 44.0449 34.8574 43.8899 35.1074C43.6915 35.4227 43.5858 35.7874 43.5849 36.1599L43.5474 44.2224C41.6275 45.73 39.4887 46.9356 37.2049 47.7974L29.9999 43.7824C29.7008 43.6169 29.3642 43.5308 29.0224 43.5324H28.9749C28.6724 43.5324 28.3674 43.5324 28.0649 43.5324C27.7071 43.5235 27.3534 43.6097 27.0399 43.7824L19.8299 47.8074C17.5411 46.9522 15.3964 45.7526 13.4699 44.2499L13.4424 36.1999C13.4411 35.8267 13.3355 35.4612 13.1374 35.1449C12.9824 34.8949 12.8299 34.6449 12.6874 34.3799C12.5107 34.0621 12.2516 33.7979 11.9374 33.6149L4.78737 29.5424C4.41736 27.2019 4.41736 24.8179 4.78737 22.4774L11.9174 18.4074C12.2303 18.2295 12.4894 17.9704 12.6674 17.6574C12.8124 17.4074 12.9649 17.1424 13.1199 16.8924C13.3183 16.5771 13.424 16.2124 13.4249 15.8399L13.4624 7.77741C15.3822 6.26978 17.521 5.06421 19.8049 4.20241L26.9999 8.21741C27.313 8.39099 27.667 8.47732 28.0249 8.46741C28.3274 8.46741 28.6324 8.46741 28.9349 8.46741C29.2926 8.47635 29.6464 8.39007 29.9599 8.21741L37.1699 4.19241C39.4586 5.0476 41.6033 6.24726 43.5299 7.74991L43.5574 15.7999C43.5586 16.1731 43.6642 16.5386 43.8624 16.8549C44.0174 17.1049 44.1699 17.3549 44.3124 17.6199C44.4891 17.9377 44.7481 18.202 45.0624 18.3849L52.2124 22.4574C52.5873 24.7997 52.5915 27.1863 52.2249 29.5299H52.2349Z" fill="#4F46E5"/>
</svg>
