<svg width="75" height="12" viewBox="0 0 75 12" fill="none" xmlns="http://www.w3.org/2000/svg">
<path d="M14.2903 10.475L7.6958 7.29963V0.313782L14.2903 10.475ZM14.8146 11.6861L7.6958 8.68055V11.6861H14.8146Z" fill="#98002E"/>
<path d="M1.1012 10.475L7.69566 0.313782V7.29963L1.1012 10.475Z" fill="#E31837"/>
<path d="M0.576782 11.6861H7.69555V8.6806L0.576782 11.6861Z" fill="#E31837"/>
<path d="M15.3905 9.60358C15.649 9.60358 15.8631 9.81035 15.8631 10.0688C15.8631 10.3273 15.6564 10.5414 15.3979 10.5414C15.1394 10.5414 14.9253 10.3347 14.9253 10.0762C14.9253 9.81035 15.1321 9.60358 15.3905 9.60358ZM15.3905 10.4676C15.6121 10.4676 15.7893 10.2903 15.7893 10.0688C15.7893 9.84727 15.6121 9.67004 15.3905 9.67004C15.169 9.67004 14.9918 9.84727 14.9918 10.0688C14.9918 10.2903 15.169 10.4676 15.3905 10.4676ZM15.2871 10.342H15.2207V9.80296H15.4274C15.553 9.80296 15.5973 9.85465 15.5973 9.95065C15.6047 10.0319 15.5382 10.0983 15.4644 10.1057L15.6268 10.342H15.553L15.3905 10.1057H15.2945L15.2871 10.342ZM15.2871 10.0393H15.3758C15.4496 10.0393 15.5308 10.0319 15.5308 9.94327C15.5308 9.87681 15.4644 9.85465 15.4127 9.85465H15.2945V10.0393H15.2871Z" fill="#98002E"/>
<path d="M20.3751 10.475H23.5727C26.8662 10.475 28.8231 8.76914 28.8231 5.94083C28.8231 3.11252 26.8662 1.41406 23.5727 1.41406H20.3751V10.475ZM22.3985 2.98699H23.5727C25.7068 2.98699 26.7776 4.04299 26.7776 5.94083C26.7776 7.83868 25.7068 8.89468 23.5727 8.89468H22.3985V2.98699Z" fill="#003D79"/>
<path d="M39.553 4.97345H35.7056V2.98699H40.0551V1.41406H33.6748V10.475H40.1954V8.90206H35.7056V6.54637H39.553V4.97345Z" fill="#003D79"/>
<path d="M47.8237 1.41406H45.793V10.475H51.7302V8.90206H47.8237V1.41406Z" fill="#003D79"/>
<path d="M54.5289 2.98699H57.5714V10.475H59.6095V2.98699H62.6594V1.41406H54.5289V2.98699Z" fill="#003D79"/>
<path d="M74.423 10.4749H72.3036L71.4175 8.20785H67.7325L66.8464 10.4749H64.8673L68.6556 1.37708H70.7012L74.423 10.4749ZM70.8415 6.68661L69.5787 3.46692L68.3085 6.68661H70.8415Z" fill="#003D79"/>
</svg>
